<svg width="24" height="24" viewBox="0 0 24 24" fill="none" xmlns="http://www.w3.org/2000/svg">
<path fill-rule="evenodd" clip-rule="evenodd" d="M6.44444 2.75C5.32453 2.75 4.41667 3.65787 4.41667 4.77778V21.25H6.25V10.3333C6.25 8.99865 7.33198 7.91667 8.66667 7.91667H15.3333C16.668 7.91667 17.75 8.99865 17.75 10.3333V21.25H19.5833V4.77778C19.5833 3.65787 18.6755 2.75 17.5556 2.75H6.44444ZM21.0833 21.25V4.77778C21.0833 2.82944 19.5039 1.25 17.5556 1.25H6.44444C4.49611 1.25 2.91667 2.82944 2.91667 4.77778V21.25H2C1.58579 21.25 1.25 21.5858 1.25 22C1.25 22.4142 1.58579 22.75 2 22.75H22C22.4142 22.75 22.75 22.4142 22.75 22C22.75 21.5858 22.4142 21.25 22 21.25H21.0833ZM16.25 21.25V10.3333C16.25 9.82707 15.8396 9.41667 15.3333 9.41667H12.75V21.25H16.25ZM11.25 21.25V9.41667H8.66667C8.16041 9.41667 7.75 9.82707 7.75 10.3333V21.25H11.25ZM9.58333 5.33333C9.58333 4.91912 9.91912 4.58333 10.3333 4.58333H13.6667C14.0809 4.58333 14.4167 4.91912 14.4167 5.33333C14.4167 5.74755 14.0809 6.08333 13.6667 6.08333H10.3333C9.91912 6.08333 9.58333 5.74755 9.58333 5.33333Z" fill="#282930"/>
</svg>