<svg viewBox="0 0 24 24" xmlns="http://www.w3.org/2000/svg"><path fill="currentColor" fill-rule="evenodd" d="M12.05 1.25h-.12v0c-1.03-.01-1.95-.01-2.79.01 -.06-.02-.11-.02-.16-.02 -.07 0-.14 0-.2.02 -.91.02-1.7.07-2.4.16 -1.45.19-2.59.59-3.48 1.49 -.9.89-1.31 2.03-1.5 3.47 -.1.69-.15 1.49-.17 2.39 -.02.06-.03.12-.03.19 0 .05 0 .1.01.15 -.02.83-.02 1.76-.02 2.78v0V12v0c-.01 2.3-.01 4.11.18 5.52 .19 1.44.59 2.58 1.49 3.47 .89.89 2.03 1.3 3.47 1.49 .69.09 1.49.14 2.39.16 .06.01.12.02.19.02 .05 0 .1-.01.15-.02 .83.01 1.76.01 2.78.01h.05c.41 0 .75-.34.75-.75 0-2.35 1.9-4.25 4.25-4.25 .41 0 .75-.34.75-.75 0-.42-.34-.75-.75-.75 -2.93 0-5.34 2.17-5.71 4.99 -.56-.01-1.07-.01-1.55-.01V9.63h4.25c.41 0 .75-.34.75-.75 0-.42-.34-.75-.75-.75h-5H2.67c.02-.62.06-1.16.13-1.64 .17-1.28.49-2.05 1.06-2.62 .56-.57 1.34-.9 2.61-1.07 .48-.07 1.02-.11 1.63-.14v2.2c0 .41.33.75.75.75 .41 0 .75-.34.75-.75V2.61c.67-.01 1.42-.01 2.25-.01 2.37 0 4.08 0 5.38.17 1.27.17 2.04.49 2.61 1.06 .56.56.89 1.34 1.06 2.61 .06.48.1 1.02.13 1.63h-3.21c-.42 0-.75.33-.75.75 0 .41.33.75.75.75h3.24c0 .67 0 1.42 0 2.25 0 2.37-.01 4.08-.18 5.38 -.18 1.27-.5 2.04-1.07 2.61 -.64.63-1.52.96-3.08 1.12 -.42.04-.72.4-.68.81 .04.41.4.71.81.67 1.69-.17 2.99-.56 3.99-1.56 .89-.9 1.3-2.04 1.49-3.48 .18-1.42.18-3.23.18-5.53v-.12c0-1.03 0-1.95-.02-2.79 .01-.06.01-.11.01-.16 0-.07-.01-.14-.03-.2 -.03-.91-.08-1.7-.17-2.4 -.2-1.45-.6-2.59-1.5-3.48 -.9-.9-2.04-1.31-3.48-1.5C15.91 1 14.1 1 11.8 1v0Zm-3.81 8.5V21.2c-.62-.03-1.16-.07-1.64-.14 -1.28-.18-2.05-.5-2.62-1.07 -.57-.57-.9-1.35-1.07-2.62 -.18-1.3-.18-3.01-.18-5.39 0-.83 0-1.58 0-2.25h5.49Z"/></svg>
